<?xml version="1.0" encoding="UTF-8"?>
<svg version="1.1" xmlns="http://www.w3.org/2000/svg" width="417" height="121">
<path d="M0 0 C137.61 0 275.22 0 417 0 C417 39.93 417 79.86 417 121 C279.39 121 141.78 121 0 121 C0 81.07 0 41.14 0 0 Z " fill="#FEFEFE" transform="translate(0,0)"/>
<path d="M0 0 C0.07411371 5.49923749 0.12858464 10.99818479 0.16479492 16.49780273 C0.17988873 18.36894799 0.20036589 20.24005783 0.22631836 22.11108398 C0.26267593 24.79940526 0.27972015 27.48725913 0.29296875 30.17578125 C0.30845261 31.01337479 0.32393646 31.85096832 0.33988953 32.71394348 C0.3415892 38.56909295 0.3415892 38.56909295 -1.33378601 40.68254089 C-3 42 -3 42 -6 43 C-6.96103058 45.69278672 -6.96103058 45.69278672 -7.5625 48.875 C-8.35430744 52.58799533 -8.87442202 54.81163304 -11 58 C-11 58.99 -11 59.98 -11 61 C-9.515 61.99 -9.515 61.99 -8 63 C-7.3125 66.125 -7.3125 66.125 -7 69 C-3.40250104 70.2452881 -0.68509279 69.76772766 3 69 C3.70125 68.938125 4.4025 68.87625 5.125 68.8125 C8.15019859 67.50158061 9.24345886 64.7146545 11 62 C11.86625 61.401875 12.7325 60.80375 13.625 60.1875 C16.67118393 57.38180428 16.84674966 55.22600268 17.34765625 51.21875 C18.19891979 48.32343449 19.84161833 47.05052982 22 45 C25.44203533 46.92952429 28.87778883 48.86997255 32.3125 50.8125 C33.77719727 51.63331055 33.77719727 51.63331055 35.27148438 52.47070312 C36.20927734 53.00244141 37.14707031 53.53417969 38.11328125 54.08203125 C39.40939331 54.81256714 39.40939331 54.81256714 40.73168945 55.55786133 C42.85424804 56.90733432 44.43471648 58.03823955 46 60 C46.97904341 64.97680401 46.97904341 64.97680401 46 68 C44.38867188 69.47973633 44.38867188 69.47973633 42.21875 70.83203125 C41.40116211 71.3437085 40.58357422 71.85538574 39.74121094 72.38256836 C34.79222352 75.3026825 29.78507448 78.10645122 24.75 80.875 C14.68268211 86.45648701 14.68268211 86.45648701 4.8125 92.375 C3.37583984 93.26832031 3.37583984 93.26832031 1.91015625 94.1796875 C0.35920672 95.14981164 -1.19090621 96.12132458 -2.73486328 97.10253906 C-15.89789239 105.40531882 -15.89789239 105.40531882 -21.65234375 104.7578125 C-26.75683734 103.11010575 -31.20194577 100.2103915 -35.7265625 97.39550781 C-40.28802625 94.59553715 -44.93493742 91.93872592 -49.5625 89.25 C-50.58174561 88.65396973 -51.60099121 88.05793945 -52.65112305 87.44384766 C-60.58700336 82.80352834 -68.56277114 78.23617836 -76.57641602 73.73144531 C-77.39424561 73.26834961 -78.2120752 72.80525391 -79.0546875 72.328125 C-80.12952393 71.72339355 -80.12952393 71.72339355 -81.22607422 71.10644531 C-83.47345224 69.70469508 -84.80219795 68.66003952 -85.57543945 66.07983398 C-85.84066377 63.40661426 -85.80926935 61.57639522 -85 59 C-81.8011673 55.96029783 -78.08761917 54.07930089 -74.1875 52.0625 C-73.16333984 51.49982422 -72.13917969 50.93714844 -71.08398438 50.35742188 C-69.18463863 49.31496129 -67.27734746 48.2867603 -65.36010742 47.27758789 C-62.84370056 45.96203832 -62.84370056 45.96203832 -60 44 C-59.77658139 40.76489851 -59.88021099 37.5992288 -59.9921875 34.359375 C-58.4388595 29.10007548 -54.61156862 27.58831124 -50 25 C-49.19675293 24.52723633 -48.39350586 24.05447266 -47.56591797 23.56738281 C-45.05824735 22.10160695 -42.53236353 20.67264413 -40 19.25 C-38.15313657 18.20402369 -36.30678991 17.15713444 -34.4609375 16.109375 C-33.54666992 15.59052734 -32.63240234 15.07167969 -31.69042969 14.53710938 C-26.96428378 11.83694471 -22.27788691 9.0700499 -17.59375 6.29785156 C-16.33608866 5.55382013 -15.07609689 4.81370961 -13.81347656 4.078125 C-12.5763153 3.34262364 -11.35452223 2.58079673 -10.14746094 1.796875 C-6.23134123 -0.66890819 -4.42277022 -1.16482932 0 0 Z " fill="#E2EAF8" transform="translate(91,17)"/>
<path d="M0 0 C0.07411371 5.49923749 0.12858464 10.99818479 0.16479492 16.49780273 C0.17988873 18.36894799 0.20036589 20.24005783 0.22631836 22.11108398 C0.26267593 24.79940526 0.27972015 27.48725913 0.29296875 30.17578125 C0.30845261 31.01337479 0.32393646 31.85096832 0.33988953 32.71394348 C0.34159513 38.58952744 0.34159513 38.58952744 -1.38334656 40.66227722 C-3.40108481 42.3318833 -5.49114299 43.47287692 -7.8125 44.6875 C-16.9395208 49.55764944 -25.90145576 54.66368661 -34.6875 60.125 C-38.76004194 62.64112481 -42.84131705 65.12838161 -47 67.5 C-47.845625 67.9846875 -48.69125 68.469375 -49.5625 68.96875 C-52.25642927 70.10848931 -54.10394413 70.28156099 -57 70 C-59.97489075 67.02510925 -58.68765149 56.87222091 -58.78955078 52.70141602 C-58.84615923 50.87037518 -58.92788834 49.03992538 -59.03564453 47.21118164 C-59.73202554 35.16859289 -59.73202554 35.16859289 -58 30 C-54.24149134 25.91434227 -50.07477708 24.0948084 -45 22 C-43.25239201 21.02124582 -41.51873145 20.01687927 -39.8046875 18.98046875 C-38.16291403 18.04691449 -36.51966739 17.11594649 -34.875 16.1875 C-29.41241996 13.1015812 -23.96845145 10.00028663 -18.6015625 6.75 C-17.31403076 5.97813354 -17.31403076 5.97813354 -16.00048828 5.19067383 C-14.36932821 4.21009849 -12.7448938 3.21822101 -11.12841797 2.21362305 C-10.39510254 1.77574463 -9.66178711 1.33786621 -8.90625 0.88671875 C-8.27009766 0.49701904 -7.63394531 0.10731934 -6.97851562 -0.29418945 C-4.36362643 -1.22701826 -2.63444989 -0.72162258 0 0 Z " fill="#4546FB" transform="translate(91,17)"/>
<path d="M0 0 C0.845625 0.185625 1.69125 0.37125 2.5625 0.5625 C6.27146026 1.03454949 9.32553912 0.57638602 13 0 C14 1 14 1 14.0625 4.5625 C14.041875 5.696875 14.02125 6.83125 14 8 C15.32 8.66 16.64 9.32 18 10 C17.54273352 12.13391026 17.05870034 13.89360563 16 15.8125 C14.78801092 18.11211293 14.78801092 18.11211293 14.8125 21.375 C13.81058218 25.84509488 12.29351659 26.85391551 8.76171875 29.51171875 C6.69647785 31.09128108 6.69647785 31.09128108 5 34.375 C4.34 35.24125 3.68 36.1075 3 37 C-0.5 37.3125 -0.5 37.3125 -4 37 C-4.7425 37.20625 -5.485 37.4125 -6.25 37.625 C-6.8275 37.74875 -7.405 37.8725 -8 38 C-8.99 37.34 -9.98 36.68 -11 36 C-11.33333333 34 -11.66666667 32 -12 30 C-12.99 29.34 -13.98 28.68 -15 28 C-14.45276317 24.62537285 -13.9451 22.91765 -12 20 C-11.70461436 18.36170372 -11.4586217 16.71408843 -11.25 15.0625 C-10.38129358 10.29840367 -10.38129358 10.29840367 -7.125 7.75 C-5.578125 6.88375 -5.578125 6.88375 -4 6 C-2.43123683 4.08687419 -1.2639977 2.13907303 0 0 Z " fill="#FBCB34" transform="translate(94,50)"/>
<path d="M0 0 C5.39906737 2.89455703 10.76396913 5.81797481 16 9 C19.23124012 10.95985015 22.48531713 12.83303694 25.8125 14.625 C31.48474047 17.68865996 37.08789045 20.86868819 42.6875 24.0625 C43.57864502 24.5692627 44.46979004 25.07602539 45.38793945 25.59814453 C46.25378662 26.0929834 47.11963379 26.58782227 48.01171875 27.09765625 C48.86040527 27.57992676 49.7090918 28.06219727 50.58349609 28.55908203 C53 30 53 30 55.10791016 31.48388672 C59.35061327 34.4652173 62.546163 35.7664215 67.79003906 35.43994141 C71.6589962 34.66974026 74.60920826 32.83065099 77.875 30.6875 C79.36384256 29.76182832 80.85345499 28.83739398 82.34375 27.9140625 C83.10816406 27.43227539 83.87257813 26.95048828 84.66015625 26.45410156 C88.5100296 24.06158845 92.44348022 21.81737207 96.375 19.5625 C97.95995188 18.64768349 99.54458484 17.73231421 101.12890625 16.81640625 C102.3202417 16.12828857 102.3202417 16.12828857 103.53564453 15.42626953 C106.09786023 13.94336245 108.65669498 12.45475457 111.21484375 10.96484375 C112.06836426 10.46847412 112.92188477 9.97210449 113.80126953 9.46069336 C115.42936364 8.51368898 117.05669108 7.56536482 118.68310547 6.61547852 C122.72715463 4.26591501 126.78574448 2.0367785 131 0 C131.23339844 2.31982422 131.23339844 2.31982422 131 5 C129.46191406 6.55908203 129.46191406 6.55908203 127.265625 7.8828125 C126.44126953 8.3871582 125.61691406 8.89150391 124.76757812 9.41113281 C123.39762695 10.19762207 123.39762695 10.19762207 122 11 C121.05060547 11.5475293 120.10121094 12.09505859 119.12304688 12.65917969 C116.01181999 14.4224771 112.88367446 16.15194096 109.75 17.875 C99.68268211 23.45648701 99.68268211 23.45648701 89.8125 29.375 C88.85472656 29.97054687 87.89695312 30.56609375 86.91015625 31.1796875 C85.35920672 32.14981164 83.80909379 33.12132458 82.26513672 34.10253906 C69.10210761 42.40531882 69.10210761 42.40531882 63.34765625 41.7578125 C58.24316266 40.11010575 53.79805423 37.2103915 49.2734375 34.39550781 C44.71197375 31.59553715 40.06506258 28.93872592 35.4375 26.25 C34.41825439 25.65396973 33.39900879 25.05793945 32.34887695 24.44384766 C24.41299664 19.80352834 16.43722886 15.23617836 8.42358398 10.73144531 C7.60575439 10.26834961 6.7879248 9.80525391 5.9453125 9.328125 C5.22875488 8.9249707 4.51219727 8.52181641 3.77392578 8.10644531 C2 7 2 7 0 5 C-0.125 2.375 -0.125 2.375 0 0 Z " fill="#83A4FC" transform="translate(6,80)"/>
<path d="M0 0 C1.134375 0.020625 2.26875 0.04125 3.4375 0.0625 C4.77840793 3.8306831 6.1089179 7.60245521 7.4375 11.375 C7.8190625 12.44685547 8.200625 13.51871094 8.59375 14.62304688 C8.9546875 15.65107422 9.315625 16.67910156 9.6875 17.73828125 C10.02265625 18.68614502 10.3578125 19.63400879 10.703125 20.6105957 C11.4375 23.0625 11.4375 23.0625 11.4375 26.0625 C9.7875 26.0625 8.1375 26.0625 6.4375 26.0625 C5.7775 24.0825 5.1175 22.1025 4.4375 20.0625 C1.1375 20.0625 -2.1625 20.0625 -5.5625 20.0625 C-5.8925 22.0425 -6.2225 24.0225 -6.5625 26.0625 C-8.2125 26.0625 -9.8625 26.0625 -11.5625 26.0625 C-10.94485841 20.30299218 -9.44127936 15.1554569 -7.5625 9.6875 C-7.28921875 8.86894531 -7.0159375 8.05039062 -6.734375 7.20703125 C-4.32182643 0.07582152 -4.32182643 0.07582152 0 0 Z " fill="#505050" transform="translate(152.5625,55.9375)"/>
<path d="M0 0 C2.75329021 1.79562405 4.52627461 3.05254922 6 6 C6.5811138 13.08958838 6.5811138 13.08958838 4.125 16.9375 C1.39102013 19.5910687 0.52615669 19.95036258 -3.3125 20.3125 C-7.58777346 19.95018869 -9.04827827 19.03853708 -12 16 C-13.20190901 12.39427296 -13.32670315 9.7897565 -13 6 C-9.30920537 0.34078157 -6.6962915 -0.56748233 0 0 Z " fill="#4D4D4D" transform="translate(371,62)"/>
<path d="M0 0 C2.20703125 1.6328125 2.20703125 1.6328125 4 4 C4.390625 7.015625 4.390625 7.015625 4.25 10.25 C4.21390625 11.32765625 4.1778125 12.4053125 4.140625 13.515625 C4.07101562 14.74539062 4.07101562 14.74539062 4 16 C4.66 16 5.32 16 6 16 C6 17.32 6 18.64 6 20 C3 20 0 20 -3 20 C-4.010625 20.061875 -5.02125 20.12375 -6.0625 20.1875 C-9 20 -9 20 -10.875 18.8125 C-12.40659584 16.34492892 -12.42822025 14.85480169 -12 12 C-9.72271892 8.38314182 -5.94849919 7.9684998 -2 7 C-2 6.34 -2 5.68 -2 5 C-4.64 5.33 -7.28 5.66 -10 6 C-10 4.68 -10 3.36 -10 2 C-6.2794164 -0.48038907 -4.40203429 -0.46337203 0 0 Z " fill="#4F4F4F" transform="translate(325,62)"/>
<path d="M0 0 C2.9375 1.5625 2.9375 1.5625 5 4 C5.3125 7.75 5.3125 7.75 5 11 C1.04 11 -2.92 11 -7 11 C-6.34 12.32 -5.68 13.64 -5 15 C-0.545 14.505 -0.545 14.505 4 14 C4.33 14.66 4.66 15.32 5 16 C2.21030106 18.91650344 0.81891141 19.90729305 -3.3125 20.375 C-7 20 -7 20 -9.9375 18.125 C-12.82533781 13.74948817 -13.02870363 10.10170093 -12 5 C-8.71154166 0.01748736 -5.83923052 -0.93844776 0 0 Z " fill="#4B4B4B" transform="translate(238,62)"/>
<path d="M0 0 C1.65 0 3.3 0 5 0 C5.33 3.3 5.66 6.6 6 10 C6.66 9.34 7.32 8.68 8 8 C13.26185894 7.44022777 13.26185894 7.44022777 15.6730957 9.26879883 C17.28785245 11.37555874 17.35219043 12.38622442 17.29296875 15.01171875 C17.28330078 15.76904297 17.27363281 16.52636719 17.26367188 17.30664062 C17.23853516 18.09232422 17.21339844 18.87800781 17.1875 19.6875 C17.16719727 20.88342773 17.16719727 20.88342773 17.14648438 22.10351562 C17.11117089 24.06929967 17.05736447 26.03473582 17 28 C15.68 28 14.36 28 13 28 C12.67 23.38 12.34 18.76 12 14 C10.35 13.67 8.7 13.34 7 13 C5.05909174 14.94090826 5.60080565 18.47293902 5.4375 21.0625 C5.35371094 22.35285156 5.26992187 23.64320312 5.18359375 24.97265625 C5.12300781 25.97167969 5.06242188 26.97070312 5 28 C3.35 28 1.7 28 0 28 C0 18.76 0 9.52 0 0 Z " fill="#4E4E4E" transform="translate(204,54)"/>
<path d="M0 0 C-3.75 3 -3.75 3 -6 3 C-6 3.66 -6 4.32 -6 5 C-6.95712891 5.39832031 -6.95712891 5.39832031 -7.93359375 5.8046875 C-8.75988281 6.15789063 -9.58617187 6.51109375 -10.4375 6.875 C-11.26121094 7.22304688 -12.08492187 7.57109375 -12.93359375 7.9296875 C-15.15746715 8.8244937 -15.15746715 8.8244937 -16 11 C-18.06640625 11.8515625 -18.06640625 11.8515625 -20.5625 12.625 C-21.38878906 12.88539062 -22.21507812 13.14578125 -23.06640625 13.4140625 C-23.70449219 13.60742188 -24.34257813 13.80078125 -25 14 C-25 14.66 -25 15.32 -25 16 C-26.12664063 16.55429687 -27.25328125 17.10859375 -28.4140625 17.6796875 C-33.13559783 20.04149561 -37.75987061 22.56272882 -42.375 25.125 C-43.18066406 25.56714844 -43.98632812 26.00929688 -44.81640625 26.46484375 C-45.58597656 26.89152344 -46.35554688 27.31820312 -47.1484375 27.7578125 C-47.84114746 28.1408252 -48.53385742 28.52383789 -49.24755859 28.91845703 C-51.15846389 30.00488648 -51.15846389 30.00488648 -53 32 C-53.24569272 34.79216791 -53.37363138 37.49240605 -53.4140625 40.2890625 C-53.43342865 41.10748627 -53.4527948 41.92591003 -53.4727478 42.76913452 C-53.53261082 45.38764976 -53.57895532 48.00620881 -53.625 50.625 C-53.66317364 52.39845686 -53.70222501 54.17189505 -53.7421875 55.9453125 C-53.83831771 60.29672375 -53.92232351 64.64822179 -54 69 C-54.66 69 -55.32 69 -56 69 C-56.32303689 63.59285939 -56.5579136 58.19138962 -56.71411133 52.77685547 C-56.77923155 50.93894633 -56.86777109 49.10170441 -56.98071289 47.26611328 C-57.706265 35.16482338 -57.706265 35.16482338 -56 30 C-52.2454843 25.90541671 -48.07927809 24.09215603 -43 22 C-41.25228815 21.02143129 -39.51861074 20.01707888 -37.8046875 18.98046875 C-36.16283413 18.047055 -34.51958907 17.11608522 -32.875 16.1875 C-27.39810932 13.08840336 -21.93443821 9.97636418 -16.53125 6.75 C-15.66387207 6.23542236 -14.79649414 5.72084473 -13.90283203 5.19067383 C-12.24785258 4.20654127 -10.59756155 3.21447078 -8.95263672 2.21362305 C-8.21287598 1.77574463 -7.47311523 1.33786621 -6.7109375 0.88671875 C-6.06431152 0.49701904 -5.41768555 0.10731934 -4.75146484 -0.29418945 C-3 -1 -3 -1 0 0 Z " fill="#4242C5" transform="translate(89,17)"/>
<path d="M0 0 C1.65 0 3.3 0 5 0 C5.33 4.95 5.66 9.9 6 15 C7.65 14.67 9.3 14.34 11 14 C11.33 9.38 11.66 4.76 12 0 C13.65 0 15.3 0 17 0 C17 6.6 17 13.2 17 20 C7 20 7 20 2 19 C-0.52775351 15.20836973 -0.22443035 12.19125969 -0.125 7.8125 C-0.11597656 7.06291016 -0.10695312 6.31332031 -0.09765625 5.54101562 C-0.07412578 3.69387346 -0.03825561 1.84689588 0 0 Z " fill="#505050" transform="translate(167,62)"/>
<path d="M0 0 C1.65 0 3.3 0 5 0 C5.33 0.66 5.66 1.32 6 2 C6.66 1.34 7.32 0.68 8 0 C13.26185894 -0.55977223 13.26185894 -0.55977223 15.6730957 1.26879883 C17.28785245 3.37555874 17.35219043 4.38622442 17.29296875 7.01171875 C17.28330078 7.76904297 17.27363281 8.52636719 17.26367188 9.30664062 C17.23853516 10.09232422 17.21339844 10.87800781 17.1875 11.6875 C17.16719727 12.88342773 17.16719727 12.88342773 17.14648438 14.10351562 C17.11117089 16.06929967 17.05736447 18.03473582 17 20 C15.68 20 14.36 20 13 20 C12.67 15.38 12.34 10.76 12 6 C10.35 5.67 8.7 5.34 7 5 C5.05909174 6.94090826 5.60080565 10.47293902 5.4375 13.0625 C5.35371094 14.35285156 5.26992187 15.64320312 5.18359375 16.97265625 C5.12300781 17.97167969 5.06242188 18.97070312 5 20 C3.35 20 1.7 20 0 20 C0 13.4 0 6.8 0 0 Z " fill="#4A4A4A" transform="translate(247,62)"/>
<path d="M0 0 C1.32 0 2.64 0 4 0 C4.33 0.66 4.66 1.32 5 2 C5.66 1.34 6.32 0.68 7 0 C10.44999744 -0.44999967 12.28213355 -0.49658862 15.1796875 1.5078125 C17.7187945 4.98410063 17.43940605 8.126776 17.25 12.25 C17.23195313 12.99507812 17.21390625 13.74015625 17.1953125 14.5078125 C17.14835649 16.33909701 17.07661652 18.16971649 17 20 C15.35 20 13.7 20 12 20 C11.67 15.05 11.34 10.1 11 5 C9.02 5 7.04 5 5 5 C4.67 9.95 4.34 14.9 4 20 C2.68 20 1.36 20 0 20 C0 13.4 0 6.8 0 0 Z " fill="#515151" transform="translate(382,62)"/>
<path d="M0 0 C2.475 0.99 2.475 0.99 5 2 C4.67 4.64 4.34 7.28 4 10 C5.32 10.66 6.64 11.32 8 12 C8 13.32 8 14.64 8 16 C5.48046875 17.95703125 5.48046875 17.95703125 2.1875 19.8125 C1.10855469 20.43769531 0.02960937 21.06289062 -1.08203125 21.70703125 C-4 23 -4 23 -7 22 C-6.56179109 17.44262737 -6.14958831 14.42346555 -3 11 C-3.33 10.67 -3.66 10.34 -4 10 C-4.3125 7.1875 -4.3125 7.1875 -4 4 C-2 1.625 -2 1.625 0 0 Z " fill="#F4F4FD" transform="translate(48,50)"/>
<path d="M0 0 C2.4375 1.5 2.4375 1.5 4 3 C3.34 4.32 2.68 5.64 2 7 C1.01 6.34 0.02 5.68 -1 5 C-3.64632287 5.3121764 -3.64632287 5.3121764 -6 6 C-6 8.64 -6 11.28 -6 14 C-2.11757759 15.07845067 -0.4883646 14.92461495 3 13 C3.66 13.33 4.32 13.66 5 14 C3.63016497 17.16115776 3.0109362 17.9927092 0 20 C-4.63847757 20.50418234 -7.25830619 19.77954397 -11 17 C-12.86394552 13.27210896 -12.55445363 9.05962028 -12 5 C-8.69926343 -0.00111602 -5.85297739 -0.85134217 0 0 Z " fill="#4D4D4D" transform="translate(306,62)"/>
<path d="M0 0 C0 1.65 0 3.3 0 5 C1.65 5 3.3 5 5 5 C5 6.32 5 7.64 5 9 C3.35 9 1.7 9 0 9 C0.33 12.63 0.66 16.26 1 20 C2.32 20 3.64 20 5 20 C4.67 21.65 4.34 23.3 4 25 C-1.44041451 25.3626943 -1.44041451 25.3626943 -3.6875 23.90625 C-5.64499078 21.06322767 -5.28856821 18.71512984 -5.1875 15.3125 C-5.16042969 14.13300781 -5.13335937 12.95351562 -5.10546875 11.73828125 C-5.07066406 10.83464844 -5.03585937 9.93101563 -5 9 C-5.99 9 -6.98 9 -8 9 C-8 7.68 -8 6.36 -8 5 C-7.01 5 -6.02 5 -5 5 C-5 3.68 -5 2.36 -5 1 C-2 0 -2 0 0 0 Z " fill="#4D4D4D" transform="translate(340,57)"/>
<path d="M0 0 C1.65 0 3.3 0 5 0 C5 1.32 5 2.64 5 4 C6.65 4 8.3 4 10 4 C10 5.32 10 6.64 10 8 C8.35 8 6.7 8 5 8 C5.33 11.63 5.66 15.26 6 19 C7.65 19.33 9.3 19.66 11 20 C10.67 21.32 10.34 22.64 10 24 C4.65420561 24.48598131 4.65420561 24.48598131 1.8125 22.375 C-0.52863177 19.3073101 -0.41570094 17.56112167 -0.25 13.75 C-0.21390625 12.67234375 -0.1778125 11.5946875 -0.140625 10.484375 C-0.09421875 9.66453125 -0.0478125 8.8446875 0 8 C-0.99 8 -1.98 8 -3 8 C-3 6.68 -3 5.36 -3 4 C-2.01 4 -1.02 4 0 4 C0 2.68 0 1.36 0 0 Z " fill="#4E4E4E" transform="translate(270,58)"/>
<path d="M0 0 C1.65 0 3.3 0 5 0 C5 1.32 5 2.64 5 4 C6.65 4 8.3 4 10 4 C10 5.32 10 6.64 10 8 C8.35 8 6.7 8 5 8 C5.33 11.63 5.66 15.26 6 19 C7.65 19.33 9.3 19.66 11 20 C10.67 21.32 10.34 22.64 10 24 C4.65420561 24.48598131 4.65420561 24.48598131 1.8125 22.375 C-0.52863177 19.3073101 -0.41570094 17.56112167 -0.25 13.75 C-0.21390625 12.67234375 -0.1778125 11.5946875 -0.140625 10.484375 C-0.09421875 9.66453125 -0.0478125 8.8446875 0 8 C-0.99 8 -1.98 8 -3 8 C-3 6.68 -3 5.36 -3 4 C-2.01 4 -1.02 4 0 4 C0 2.68 0 1.36 0 0 Z " fill="#4E4E4E" transform="translate(190,58)"/>
<path d="M0 0 C-1.44551871 3.66093325 -3.1000199 4.97058077 -6.5 6.875 C-10.98526925 9.41946533 -15.34164138 12.10452916 -19.67578125 14.8984375 C-22.31245225 16.14808661 -24.11725055 16.21429288 -27 16 C-26.67578218 13.11653918 -26.23163517 12.18616615 -23.93041992 10.33666992 C-22.59394409 9.54160034 -22.59394409 9.54160034 -21.23046875 8.73046875 C-20.25916016 8.15232422 -19.28785156 7.57417969 -18.28710938 6.97851562 C-17.26423828 6.38748047 -16.24136719 5.79644531 -15.1875 5.1875 C-14.17623047 4.57712891 -13.16496094 3.96675781 -12.12304688 3.33789062 C-11.14787109 2.76619141 -10.17269531 2.19449219 -9.16796875 1.60546875 C-8.27360107 1.08106201 -7.3792334 0.55665527 -6.45776367 0.01635742 C-3.73879736 -1.10801496 -2.69008782 -1.06326808 0 0 Z " fill="#EEEFFE" transform="translate(87,40)"/>
<path d="M0 0 C-1.42961877 3.57763173 -2.97780818 4.90410359 -6.31640625 6.76171875 C-7.16267578 7.24060547 -8.00894531 7.71949219 -8.88085938 8.21289062 C-9.76580078 8.69951172 -10.65074219 9.18613281 -11.5625 9.6875 C-13.31439039 10.66952413 -15.06572324 11.65254379 -16.81640625 12.63671875 C-17.59443604 13.06686279 -18.37246582 13.49700684 -19.17407227 13.94018555 C-20.95504338 14.86951215 -20.95504338 14.86951215 -22 16 C-23.66617115 16.04063832 -25.33388095 16.042721 -27 16 C-26.63677481 13.41007655 -26.33217881 12.2794437 -24.29760742 10.56787109 C-23.57420166 10.14070801 -22.8507959 9.71354492 -22.10546875 9.2734375 C-21.31462891 8.7990625 -20.52378906 8.3246875 -19.70898438 7.8359375 C-18.87689453 7.35382812 -18.04480469 6.87171875 -17.1875 6.375 C-16.36701172 5.88515625 -15.54652344 5.3953125 -14.70117188 4.890625 C-4.03555966 -1.44127131 -4.03555966 -1.44127131 0 0 Z " fill="#EFF0FE" transform="translate(87,30)"/>
<path d="M0 0 C1.65 0 3.3 0 5 0 C5 6.6 5 13.2 5 20 C3.35 20 1.7 20 0 20 C0 13.4 0 6.8 0 0 Z " fill="#4F4F4F" transform="translate(349,62)"/>
<path d="M0 0 C1.65 0 3.3 0 5 0 C5 6.6 5 13.2 5 20 C3.35 20 1.7 20 0 20 C0 13.4 0 6.8 0 0 Z " fill="#4F4F4F" transform="translate(284,62)"/>
<path d="M0 0 C0.99 0 1.98 0 3 0 C1.394759 4.68195292 -0.75525649 8.67956264 -5.125 11.25 C-7.76399272 13.71305987 -7.8647769 16.16163232 -8.49609375 19.63671875 C-9.21537189 23.01007746 -10.54095593 25.88295131 -12 29 C-12.99 28.67 -13.98 28.34 -15 28 C-14.45276317 24.62537285 -13.9451 22.91765 -12 20 C-11.70461436 18.36170372 -11.4586217 16.71408843 -11.25 15.0625 C-10.38129358 10.29840367 -10.38129358 10.29840367 -7.125 7.75 C-5.578125 6.88375 -5.578125 6.88375 -4 6 C-2.65783025 4.00591923 -1.3227887 2.00698975 0 0 Z " fill="#C58E3D" transform="translate(94,50)"/>
<path d="M0 0 C5.51031294 -0.3673542 5.51031294 -0.3673542 7.6809082 1.26098633 C9.28288089 3.37293367 9.35212199 4.3892584 9.29296875 7.01171875 C9.28330078 7.76904297 9.27363281 8.52636719 9.26367188 9.30664062 C9.23853516 10.09232422 9.21339844 10.87800781 9.1875 11.6875 C9.17396484 12.48478516 9.16042969 13.28207031 9.14648438 14.10351562 C9.11117089 16.06929967 9.05736447 18.03473582 9 20 C7.68 20 6.36 20 5 20 C4.67 15.38 4.34 10.76 4 6 C1.525 5.01 1.525 5.01 -1 4 C-0.67 2.68 -0.34 1.36 0 0 Z " fill="#454545" transform="translate(212,62)"/>
<path d="M0 0 C1.32 0 2.64 0 4 0 C4.33 0.66 4.66 1.32 5 2 C6.32 1.34 7.64 0.68 9 0 C8.360625 0.886875 7.72125 1.77375 7.0625 2.6875 C3.95670079 7.99918488 4.18060488 13.99488758 4 20 C2.68 20 1.36 20 0 20 C0 13.4 0 6.8 0 0 Z " fill="#444444" transform="translate(382,62)"/>
<path d="M0 0 C2.375 0.75 2.375 0.75 3.375 1.75 C3.73397436 8.21153846 3.73397436 8.21153846 1.375 11.75 C-1.5625 11.375 -1.5625 11.375 -4.625 10.75 C-6.02435013 7.95129973 -5.87765405 5.84501208 -5.625 2.75 C-3.92079816 -0.03053984 -3.27136899 -0.31155895 0 0 Z " fill="#F2F2F2" transform="translate(368.625,66.25)"/>
<path d="M0 0 C0.78117187 0.36351562 0.78117187 0.36351562 1.578125 0.734375 C1.44140625 2.49609375 1.44140625 2.49609375 0.578125 4.734375 C-2.00390625 6.69140625 -2.00390625 6.69140625 -5.234375 8.546875 C-6.29269531 9.17207031 -7.35101563 9.79726562 -8.44140625 10.44140625 C-11.421875 11.734375 -11.421875 11.734375 -13.80859375 11.43359375 C-14.34097656 11.20285156 -14.87335937 10.97210938 -15.421875 10.734375 C-15.421875 9.744375 -15.421875 8.754375 -15.421875 7.734375 C-13.35773762 6.14749482 -11.39134086 4.815104 -9.171875 3.484375 C-8.29208984 2.91976562 -8.29208984 2.91976562 -7.39453125 2.34375 C-3.01846719 -0.33105769 -3.01846719 -0.33105769 0 0 Z " fill="#EAEBFE" transform="translate(75.421875,55.265625)"/>
<path d="M0 0 C0 1.32 0 2.64 0 4 C-2.08203125 5.703125 -2.08203125 5.703125 -4.8125 7.25 C-5.70582031 7.77078125 -6.59914063 8.2915625 -7.51953125 8.828125 C-10 10 -10 10 -13 10 C-12.58534283 5.16233301 -10.5801385 3.14353624 -7 0 C-4.3333581 -1.33332095 -2.83319697 -0.67102033 0 0 Z " fill="#F5F5FE" transform="translate(56,62)"/>
<path d="M0 0 C0.99 0.33 1.98 0.66 3 1 C-0.465 8.425 -0.465 8.425 -4 16 C-9 14 -9 14 -11 13 C-11 12.34 -11 11.68 -11 11 C-9.35 11 -7.7 11 -6 11 C-5.938125 10.29875 -5.87625 9.5975 -5.8125 8.875 C-4.70798798 4.9667267 -2.71769008 2.99642752 0 0 Z " fill="#EACE9D" transform="translate(101,61)"/>
<path d="M0 0 C-6.11284894 4.07523263 -12.39771384 7.77562769 -19 11 C-22.66410852 12.85406988 -22.66410852 12.85406988 -25 16 C-25.66 16 -26.32 16 -27 16 C-26.67578218 13.11653918 -26.23163517 12.18616615 -23.93041992 10.33666992 C-22.59394409 9.54160034 -22.59394409 9.54160034 -21.23046875 8.73046875 C-20.25916016 8.15232422 -19.28785156 7.57417969 -18.28710938 6.97851562 C-17.26423828 6.38748047 -16.24136719 5.79644531 -15.1875 5.1875 C-14.17623047 4.57712891 -13.16496094 3.96675781 -12.12304688 3.33789062 C-11.14787109 2.76619141 -10.17269531 2.19449219 -9.16796875 1.60546875 C-8.27360107 1.08106201 -7.3792334 0.55665527 -6.45776367 0.01635742 C-3.73879736 -1.10801496 -2.69008782 -1.06326808 0 0 Z " fill="#A5B7EB" transform="translate(87,40)"/>
<path d="M0 0 C-1.95786633 1.20908987 -3.91632266 2.41722437 -5.875 3.625 C-6.75333496 4.16761475 -6.75333496 4.16761475 -7.64941406 4.72119141 C-12.11705825 7.47490249 -16.62682407 10.14903712 -21.171875 12.7734375 C-23.14538675 13.8794626 -23.14538675 13.8794626 -24 16 C-24.66 16 -25.32 16 -26 16 C-25.63677481 13.41007655 -25.33217881 12.2794437 -23.29760742 10.56787109 C-22.57420166 10.14070801 -21.8507959 9.71354492 -21.10546875 9.2734375 C-20.31462891 8.7990625 -19.52378906 8.3246875 -18.70898438 7.8359375 C-17.87689453 7.35382812 -17.04480469 6.87171875 -16.1875 6.375 C-15.36701172 5.88515625 -14.54652344 5.3953125 -13.70117188 4.890625 C-11.47878248 3.57125027 -9.25380428 2.26495193 -7 1 C-6.31333252 0.59861816 -5.62666504 0.19723633 -4.91918945 -0.21630859 C-3 -1 -3 -1 0 0 Z " fill="#A4B6EB" transform="translate(86,30)"/>
<path d="M0 0 C0.66 0.33 1.32 0.66 2 1 C-5.94603217 6.54960977 -14.32393849 11.66196925 -23 16 C-21.74891763 12.2467529 -20.07036355 11.76968547 -16.703125 9.9765625 C-14.89910057 9.04084853 -14.89910057 9.04084853 -13.375 7.375 C-11.49451438 5.49451438 -9.47773853 4.95730807 -7 4 C-5.76309538 3.28403793 -4.53417925 2.55414312 -3.3125 1.8125 C-2.219375 1.214375 -1.12625 0.61625 0 0 Z " fill="#3C3FE0" transform="translate(82,38)"/>
<path d="M0 0 C0.33 0.66 0.66 1.32 1 2 C1.66 2.33 2.32 2.66 3 3 C2.16855469 3.36351562 2.16855469 3.36351562 1.3203125 3.734375 C0.23363281 4.23710938 0.23363281 4.23710938 -0.875 4.75 C-1.59429687 5.07484375 -2.31359375 5.3996875 -3.0546875 5.734375 C-5.40459663 7.26323154 -6.07550854 8.37249795 -7 11 C-7 12.32 -7 13.64 -7 15 C-7.99 14.67 -8.98 14.34 -10 14 C-9.51219512 7.65853659 -9.51219512 7.65853659 -7.25 4.75 C-4.92823176 2.94418026 -2.5701279 1.42784883 0 0 Z " fill="#A9B8EC" transform="translate(51,58)"/>
<path d="M0 0 C0.99 0.66 1.98 1.32 3 2 C3.96349377 7.64332066 1.45015825 12.07780708 -1 17 C-1.99 16.67 -2.98 16.34 -4 16 C-3.45276317 12.62537285 -2.9451 10.91765 -1 8 C-0.54860541 5.9507906 -0.54860541 5.9507906 -0.375 3.8125 C-0.25125 2.554375 -0.1275 1.29625 0 0 Z " fill="#D19E44" transform="translate(83,62)"/>
<path d="M0 0 C2.12046792 3.53411321 2.53199289 6.94393835 3 11 C1.02 11 -0.96 11 -3 11 C-2.69217504 9.35328588 -2.37860766 7.70764424 -2.0625 6.0625 C-1.88847656 5.14597656 -1.71445313 4.22945313 -1.53515625 3.28515625 C-1 1 -1 1 0 0 Z " fill="#E8E8E8" transform="translate(152,61)"/>
<path d="M0 0 C0.66 0.33 1.32 0.66 2 1 C-1.66505414 4.99824088 -5.11112852 7.60168569 -10 10 C-10.66 9.67 -11.32 9.34 -12 9 C-10.68884949 5.06654848 -9.15787222 4.67625924 -5.5625 2.75 C-4.57378906 2.20859375 -3.58507812 1.6671875 -2.56640625 1.109375 C-1.71949219 0.74328125 -0.87257813 0.3771875 0 0 Z " fill="#4A4AFD" transform="translate(82,35)"/>
<path d="M0 0 C0.99 0.33 1.98 0.66 3 1 C-0.16987384 4.69818615 -4.29489365 6.39373997 -8.8125 8 C-9.534375 8.33 -10.25625 8.66 -11 9 C-11.33 9.99 -11.66 10.98 -12 12 C-12.33 10.68 -12.66 9.36 -13 8 C-10.90320896 6.63304778 -8.7989062 5.28153009 -6.6875 3.9375 C-6.09259766 3.54755859 -5.49769531 3.15761719 -4.88476562 2.75585938 C-3.30390365 1.75788505 -1.65405288 0.87131304 0 0 Z " fill="#A1B3EA" transform="translate(73,55)"/>
<path d="M0 0 C0.33 0.66 0.66 1.32 1 2 C0.00390625 4.6015625 0.00390625 4.6015625 -1.4375 7.625 C-1.91058594 8.62789062 -2.38367188 9.63078125 -2.87109375 10.6640625 C-3.24363281 11.43492188 -3.61617188 12.20578125 -4 13 C-6.475 12.01 -6.475 12.01 -9 11 C-8 9 -8 9 -6.1875 8.3125 C-2.83035056 6.29821034 -1.78669384 3.44576669 0 0 Z " fill="#FDF5DE" transform="translate(101,64)"/>
<path d="M0 0 C-0.33 1.65 -0.66 3.3 -1 5 C-2.32 5.33 -3.64 5.66 -5 6 C-5.33 4.35 -5.66 2.7 -6 1 C-4 0 -4 0 0 0 Z " fill="#F6F6F6" transform="translate(324,73)"/>
<path d="M0 0 C1.98 0.495 1.98 0.495 4 1 C3.67 2.65 3.34 4.3 3 6 C1.68 5.67 0.36 5.34 -1 5 C-0.67 3.35 -0.34 1.7 0 0 Z " fill="#494949" transform="translate(350,54)"/>
<path d="M0 0 C1.98 0.495 1.98 0.495 4 1 C3.67 2.65 3.34 4.3 3 6 C1.68 5.67 0.36 5.34 -1 5 C-0.67 3.35 -0.34 1.7 0 0 Z " fill="#494949" transform="translate(285,54)"/>
<path d="M0 0 C0 0.99 0 1.98 0 3 C-2.31 3 -4.62 3 -7 3 C-7 2.01 -7 1.02 -7 0 C-4.3333581 -1.33332095 -2.83319697 -0.67102033 0 0 Z " fill="#F2F2F2" transform="translate(238,67)"/>
<path d="M0 0 C0.99 0.33 1.98 0.66 3 1 C2.21625 1.7425 1.4325 2.485 0.625 3.25 C-1.56504531 5.54433318 -2.82731386 7.12158858 -4 10 C-4.25 7.25 -4.25 7.25 -4 4 C-2 1.625 -2 1.625 0 0 Z " fill="#A5B6EA" transform="translate(48,50)"/>
<path d="M0 0 C0.66 0 1.32 0 2 0 C1.67 2.31 1.34 4.62 1 7 C0.01 6.67 -0.98 6.34 -2 6 C-1.125 1.125 -1.125 1.125 0 0 Z " fill="#CB953C" transform="translate(81,72)"/>
<path d="M0 0 C0.66 0.33 1.32 0.66 2 1 C1.01 2.32 0.02 3.64 -1 5 C-2.65 4.67 -4.3 4.34 -6 4 C-4.03617993 2.49440461 -2.21736634 1.10868317 0 0 Z " fill="#5656FE" transform="translate(82,35)"/>
<path d="M0 0 C1.485 0.99 1.485 0.99 3 2 C3.1875 4.625 3.1875 4.625 3 7 C2.01 6.67 1.02 6.34 0 6 C0 4.02 0 2.04 0 0 Z " fill="#D5A54A" transform="translate(83,80)"/>
</svg>
